<?xml version="1.0" standalone="no"?>
<!DOCTYPE svg PUBLIC "-//W3C//DTD SVG 20010904//EN"
 "http://www.w3.org/TR/2001/REC-SVG-20010904/DTD/svg10.dtd">
<svg version="1.0" xmlns="http://www.w3.org/2000/svg"
 width="225.000000pt" height="225.000000pt" viewBox="0 0 225.000000 225.000000"
 preserveAspectRatio="xMidYMid meet">
<metadata>
Created by potrace 1.16, written by Peter Selinger 2001-2019
</metadata>
<g transform="translate(0.000000,225.000000) scale(0.100000,-0.100000)"
fill="#000000" stroke="none">
<path d="M0 1125 l0 -1125 1125 0 1125 0 0 1125 0 1125 -1125 0 -1125 0 0
-1125z m1274 577 c92 -167 169 -309 172 -315 3 -9 -8 -11 -39 -9 -40 3 -43 2
-60 -32 l-17 -36 80 0 79 0 41 -69 c59 -101 58 -99 10 -96 -48 3 -42 -1 -68
51 -18 35 -27 42 -56 46 -52 6 -56 0 -30 -45 13 -23 24 -45 24 -48 0 -6 -20
-5 -71 0 -3 1 -16 20 -29 42 l-23 42 -13 -24 c-7 -13 -62 -114 -122 -224
l-110 -200 184 -3 184 -2 0 -35 0 -35 -246 0 -246 0 20 33 c30 50 261 472 268
490 4 12 -1 15 -25 13 -17 -1 -36 -7 -43 -14 -6 -6 -82 -141 -169 -299 l-158
-288 300 -3 299 -2 0 -35 0 -35 -360 0 -361 0 25 43 c38 66 346 630 346 635 0
2 -32 2 -72 0 l-72 -3 -27 -50 c-26 -47 -30 -50 -68 -52 l-41 -1 38 66 c20 37
42 75 47 84 10 16 32 18 199 20 l188 2 14 28 c8 15 14 29 14 33 0 3 -103 5
-228 5 l-228 0 -63 -115 c-35 -63 -66 -115 -70 -116 -3 0 -21 -2 -39 -5 l-32
-4 45 91 c26 50 88 166 139 257 51 92 137 249 192 349 54 100 102 178 105 175
4 -4 82 -143 173 -310z m-617 -634 c-64 -111 -237 -426 -237 -432 0 -3 61 -6
135 -6 74 0 135 -2 135 -5 0 -2 -5 -16 -12 -30 l-11 -25 -140 0 c-155 0 -177
8 -177 60 0 16 52 120 126 254 l126 226 40 0 40 0 -25 -42z m1067 -186 c69
-125 126 -238 126 -250 0 -12 -9 -31 -20 -42 -19 -19 -33 -20 -205 -20 l-185
0 0 30 0 30 170 0 c94 0 170 3 170 8 0 4 -58 112 -129 240 l-129 232 38 0 38
0 126 -228z"/>
<path d="M981 1666 c-61 -112 -111 -206 -111 -210 0 -3 18 -6 39 -6 l40 0 74
131 75 131 73 -131 74 -131 43 0 c24 0 42 4 40 8 -12 32 -224 411 -229 412 -4
0 -57 -92 -118 -204z"/>
</g>
</svg>
